<svg width="28" height="28" viewBox="0 0 44 44" fill="none" xmlns="http://www.w3.org/2000/svg">
<mask id="path-1-outside-1_239_976" maskUnits="userSpaceOnUse" x="-1.92893" y="-1.22102" width="47.3762" height="47.3762" fill="black">
<rect fill="white" x="-1.92893" y="-1.22102" width="47.3762" height="47.3762"/>
<path d="M12.7527 9.82611L34.3626 31.436L30.9119 34.8867L9.30204 13.2768L12.7527 9.82611ZM9.30204 31.3929L30.8688 9.82611L34.3195 13.2768L12.7527 34.8435L9.30204 31.3929Z"/>
</mask>
<path d="M12.7527 9.82611L13.4598 9.11901L12.7527 8.4119L12.0456 9.11901L12.7527 9.82611ZM34.3626 31.436L35.0697 32.1431L35.7768 31.436L35.0697 30.7289L34.3626 31.436ZM30.9119 34.8867L30.2048 35.5938L30.9119 36.3009L31.619 35.5938L30.9119 34.8867ZM9.30204 13.2768L8.59494 12.5697L7.88783 13.2768L8.59494 13.9839L9.30204 13.2768ZM9.30204 31.3929L8.59494 30.6858L7.88783 31.3929L8.59494 32.1L9.30204 31.3929ZM30.8688 9.82611L31.5759 9.119L30.8688 8.4119L30.1617 9.119L30.8688 9.82611ZM34.3195 13.2768L35.0266 13.9839L35.7337 13.2768L35.0266 12.5697L34.3195 13.2768ZM12.7527 34.8435L12.0456 35.5507L12.7527 36.2578L13.4598 35.5507L12.7527 34.8435ZM12.0456 10.5332L33.6555 32.1431L35.0697 30.7289L13.4598 9.11901L12.0456 10.5332ZM33.6555 30.7289L30.2048 34.1796L31.619 35.5938L35.0697 32.1431L33.6555 30.7289ZM31.619 34.1796L10.0092 12.5697L8.59494 13.9839L30.2048 35.5938L31.619 34.1796ZM10.0092 13.9839L13.4598 10.5332L12.0456 9.11901L8.59494 12.5697L10.0092 13.9839ZM10.0092 32.1L31.5759 10.5332L30.1617 9.119L8.59494 30.6858L10.0092 32.1ZM30.1617 10.5332L33.6124 13.9839L35.0266 12.5697L31.5759 9.119L30.1617 10.5332ZM33.6124 12.5697L12.0456 34.1364L13.4598 35.5507L35.0266 13.9839L33.6124 12.5697ZM13.4598 34.1364L10.0092 30.6858L8.59494 32.1L12.0456 35.5507L13.4598 34.1364Z" fill="#2C37CD" mask="url(#path-1-outside-1_239_976)"/>
</svg>
