<svg width="1276" height="316" viewBox="0 0 1276 316" fill="none" xmlns="http://www.w3.org/2000/svg">
<path d="M526.891 158.586C526.891 189.445 520.608 216.617 508.044 240.102C495.752 263.588 478.406 282.021 456.009 295.402C433.884 308.51 408.206 315.064 378.981 315.064C349.753 315.064 324.078 308.51 301.953 295.402C279.827 282.021 262.618 263.724 250.326 240.512C238.035 217.026 231.889 189.854 231.889 158.996C231.889 128.41 238.035 101.374 250.326 77.8889C262.891 54.1304 280.236 35.6971 302.362 22.5889C324.487 9.20766 350.162 2.51705 379.391 2.51705C408.616 2.51705 434.294 9.20766 456.419 22.5889C478.544 35.6971 495.752 53.9938 508.044 77.4793C520.608 100.965 526.891 128 526.891 158.586ZM460.926 158.586C460.926 138.651 457.648 121.583 451.092 107.382C444.537 93.1819 435.113 82.2582 422.821 74.6119C410.802 66.9656 396.461 63.1423 379.8 63.1423C362.864 63.1423 348.251 66.9656 335.96 74.6119C323.668 82.2582 314.244 93.1819 307.689 107.382C301.133 121.583 297.855 138.651 297.855 158.586C297.855 178.521 301.133 195.726 307.689 210.199C314.244 224.4 323.668 235.46 335.96 243.379C348.251 251.026 362.864 254.849 379.8 254.849C396.461 254.849 410.802 250.889 422.821 242.97C435.113 235.05 444.537 223.99 451.092 209.79C457.648 195.316 460.926 178.248 460.926 158.586ZM536.701 95.0934C536.701 76.7967 541.346 60.8211 550.632 47.1667C560.193 33.2393 573.167 22.3158 589.556 14.3963C606.217 6.2037 625.339 2.10742 646.917 2.10742C668.223 2.10742 686.661 5.93063 702.23 13.577C717.8 20.9504 729.819 31.6008 738.286 45.5282C747.028 59.1826 751.397 75.4311 751.397 94.2741H689.119C688.847 83.0775 684.884 74.3389 677.237 68.0578C669.59 61.5037 659.209 58.2267 646.098 58.2267C631.895 58.2267 620.557 61.3671 612.091 67.6482C603.624 73.656 599.389 81.9852 599.389 92.6356C599.389 102.194 601.985 109.703 607.174 115.165C612.363 120.354 620.557 124.04 631.758 126.225L677.647 136.056C704.141 141.518 723.808 151.076 736.647 164.73C749.758 178.112 756.314 196.545 756.314 220.03C756.314 239.146 751.535 255.941 741.974 270.415C732.687 284.889 719.439 296.084 702.23 304.004C685.294 311.65 665.355 315.474 642.41 315.474C620.285 315.474 600.891 311.787 584.229 304.414C567.84 296.769 555.001 286.117 545.715 272.463C536.701 258.536 532.194 242.287 532.194 223.717H594.473C594.745 234.914 598.98 243.789 607.174 250.343C615.641 256.624 627.523 259.764 642.82 259.764C658.39 259.764 670.681 256.76 679.695 250.753C688.981 244.745 693.626 236.552 693.626 226.175C693.626 217.163 691.305 210.199 686.661 205.284C682.291 200.368 674.779 196.818 664.126 194.633L617.417 184.802C590.648 179.34 570.436 169.1 556.778 154.08C543.395 139.06 536.701 119.398 536.701 95.0934ZM842.977 310.149H780.289V7.84225H842.977V128.683H964.255V7.84225H1026.94V310.149H964.255V186.85H842.977V310.149ZM1164.53 220.03C1144.05 220.03 1125.47 215.252 1108.81 205.693C1092.15 196.135 1078.9 183.164 1069.07 166.779C1059.51 150.12 1054.73 131.687 1054.73 111.479C1054.73 90.9971 1059.51 72.5637 1069.07 56.1785C1078.9 39.7934 1092.15 26.8217 1108.81 17.2637C1125.47 7.43259 1144.05 2.51705 1164.53 2.51705C1185.29 2.51705 1203.87 7.29607 1220.26 16.8541C1236.65 26.4121 1249.62 39.3837 1259.18 55.7689C1268.74 72.1541 1273.52 90.7241 1273.52 111.479C1273.52 131.96 1268.74 150.393 1259.18 166.779C1249.89 183.164 1237.06 196.135 1220.67 205.693C1204.28 215.252 1185.57 220.03 1164.53 220.03ZM1164.53 197.91C1181.2 197.91 1195.95 194.224 1208.78 186.85C1221.62 179.204 1231.73 168.963 1239.1 156.128C1246.48 143.02 1250.17 128.137 1250.17 111.479C1250.17 94.5471 1246.48 79.6641 1239.1 66.8289C1231.73 53.7208 1221.62 43.48 1208.78 36.1067C1195.95 28.4603 1181.2 24.6371 1164.53 24.6371C1148.15 24.6371 1133.4 28.4603 1120.28 36.1067C1107.45 43.48 1097.2 53.7208 1089.55 66.8289C1081.91 79.6641 1078.08 94.5471 1078.08 111.479C1078.08 128.137 1081.77 143.02 1089.15 156.128C1096.79 168.963 1107.04 179.204 1119.87 186.85C1132.99 194.224 1147.87 197.91 1164.53 197.91ZM1145.69 165.959H1123.97V53.7208H1170.27C1183.38 53.7208 1193.76 56.8612 1201.41 63.1423C1209.06 69.4233 1212.88 78.1619 1212.88 89.3586C1212.88 103.832 1205.78 114.892 1191.58 122.539L1214.93 165.959H1190.35L1171.09 127.864H1145.69V165.959ZM1188.71 90.5874C1188.71 79.6641 1181.74 74.2023 1167.81 74.2023H1145.69V107.792H1167.81C1174.37 107.792 1179.42 106.29 1182.97 103.286C1186.8 100.009 1188.71 95.776 1188.71 90.5874Z" fill="#2C37CD"/>
<path fill-rule="evenodd" clip-rule="evenodd" d="M20.4863 8.77734H79.0184L79.0184 188.827C81.3107 188.827 83.2667 188.907 85.1643 188.985H85.1645H85.1646C91.0752 189.227 96.4197 189.446 109.599 187.146C127.307 181.407 130.88 180.228 137.55 174.649C144.221 169.069 153.471 159.025 157.082 151.735C160.692 144.445 162.427 136.631 162.427 128.74L162.427 8.77734H222.042V128.74H222.422C222.422 144.494 218.713 160.094 211.505 174.649C204.299 189.203 193.736 202.428 180.421 213.568C177.986 215.604 175.467 217.564 172.871 219.444C175.467 221.324 177.986 223.284 180.421 225.32C193.736 236.46 204.299 249.685 211.505 264.239C218.713 278.794 222.422 294.394 222.422 310.148H150.72C150.72 302.271 148.865 294.472 145.262 287.194C141.659 279.917 136.378 273.304 129.719 267.735C123.061 262.164 115.156 257.746 106.457 254.732C97.7582 251.718 88.4344 250.166 79.0184 250.166L79.0184 310.148H20.4863V8.77734Z" fill="#2C37CD"/>
</svg>
