<svg width="40" height="40" viewBox="0 0 40 40" fill="none" xmlns="http://www.w3.org/2000/svg">
<mask id="path-1-inside-1_85_371" fill="white">
<path fill-rule="evenodd" clip-rule="evenodd" d="M0.456055 0H8.18462V23.464C8.29117 23.4644 8.39767 23.4659 8.50409 23.4685C9.3932 23.4251 10.2692 23.2267 11.0933 22.8812C12.0327 22.4874 12.8861 21.9104 13.6051 21.1828C14.324 20.4553 14.8942 19.5916 15.2833 18.641C15.6648 17.7091 15.852 16.7117 15.8592 15.7035V0H23.588V15.713H23.5875C23.5785 17.7433 23.179 19.7527 22.411 21.6289C21.6343 23.5267 20.4956 25.2511 19.0605 26.7037C18.8318 26.935 18.5964 27.1588 18.3546 27.3746C18.5964 27.5904 18.8318 27.8141 19.0605 28.0455C20.4956 29.4981 21.6343 31.2225 22.411 33.1203C23.1879 35.0182 23.5877 37.0523 23.5877 39.1066H15.8591C15.8591 38.0794 15.6591 37.0625 15.2708 36.1135C14.8824 35.1646 14.3132 34.3023 13.5954 33.5761C12.8778 32.8497 12.0257 32.2737 11.0881 31.8806C10.1671 31.4946 9.18115 31.2925 8.18462 31.2854V39.1065H0.456055V0ZM35.2346 15.6426C37.3688 15.6426 39.0989 13.8918 39.0989 11.732C39.0989 9.57217 37.3688 7.82131 35.2346 7.82131C33.1004 7.82131 31.3703 9.57217 31.3703 11.732C31.3703 13.8918 33.1004 15.6426 35.2346 15.6426ZM39.0989 15.6426V23.4639H31.3703L39.0989 15.6426Z"/>
</mask>
<path d="M8.18462 0H9.18462V-1H8.18462V0ZM0.456055 0V-1H-0.543945V0H0.456055ZM8.18462 23.464H7.18462V24.4605L8.18107 24.464L8.18462 23.464ZM8.50409 23.4685L8.47964 24.4682L8.51629 24.4691L8.5529 24.4673L8.50409 23.4685ZM11.0933 22.8812L10.7067 21.959L10.7067 21.959L11.0933 22.8812ZM15.2833 18.641L14.3579 18.2621L14.3578 18.2621L15.2833 18.641ZM15.8592 15.7035L16.8592 15.7107V15.7035H15.8592ZM15.8592 0V-1H14.8592V0H15.8592ZM23.588 0H24.588V-1H23.588V0ZM23.588 15.713V16.713H24.588V15.713H23.588ZM23.5875 15.713V14.713H22.5919L22.5875 15.7086L23.5875 15.713ZM22.411 21.6289L21.4855 21.25L21.4855 21.2501L22.411 21.6289ZM19.0605 26.7037L19.7717 27.4066L19.7718 27.4065L19.0605 26.7037ZM18.3546 27.3746L17.6887 26.6285L16.8527 27.3746L17.6887 28.1207L18.3546 27.3746ZM19.0605 28.0455L19.7718 27.3426L19.7717 27.3425L19.0605 28.0455ZM22.411 33.1203L21.4855 33.4991L21.4855 33.4992L22.411 33.1203ZM23.5877 39.1066V40.1066H24.5877V39.1066H23.5877ZM15.8591 39.1066H14.8591V40.1066H15.8591V39.1066ZM15.2708 36.1135L14.3453 36.4923V36.4923L15.2708 36.1135ZM13.5954 33.5761L12.884 34.2789L12.8842 34.2791L13.5954 33.5761ZM11.0881 31.8806L11.4747 30.9584L11.4747 30.9584L11.0881 31.8806ZM8.18462 31.2854L8.1917 30.2855L7.18462 30.2783V31.2854H8.18462ZM8.18462 39.1065V40.1065H9.18462V39.1065H8.18462ZM0.456055 39.1065H-0.543945V40.1065H0.456055V39.1065ZM39.0989 23.4639V24.4639H40.0989V23.4639H39.0989ZM39.0989 15.6426H40.0989V13.2079L38.3876 14.9397L39.0989 15.6426ZM31.3703 23.4639L30.659 22.7611L28.9763 24.4639H31.3703V23.4639ZM8.18462 -1H0.456055V1H8.18462V-1ZM9.18462 23.464V0H7.18462V23.464H9.18462ZM8.52855 22.4688C8.41517 22.466 8.30169 22.4644 8.18816 22.464L8.18107 24.464C8.28064 24.4644 8.38018 24.4658 8.47964 24.4682L8.52855 22.4688ZM10.7067 21.959C9.98985 22.2595 9.22815 22.4319 8.45528 22.4697L8.5529 24.4673C9.55824 24.4182 10.5486 24.1939 11.48 23.8035L10.7067 21.959ZM12.8937 20.48C12.2671 21.1141 11.5239 21.6164 10.7067 21.959L11.48 23.8035C12.5414 23.3585 13.5051 22.7067 14.3164 21.8857L12.8937 20.48ZM14.3578 18.2621C14.018 19.0924 13.5204 19.8458 12.8937 20.48L14.3164 21.8857C15.1276 21.0647 15.7704 20.0908 16.2088 19.0198L14.3578 18.2621ZM14.8593 15.6963C14.8529 16.5857 14.6878 17.4561 14.3579 18.2621L16.2088 19.0198C16.6417 17.9622 16.8511 16.8377 16.8592 15.7107L14.8593 15.6963ZM14.8592 0V15.7035H16.8592V0H14.8592ZM23.588 -1H15.8592V1H23.588V-1ZM24.588 15.713V0H22.588V15.713H24.588ZM23.5875 16.713H23.588V14.713H23.5875V16.713ZM23.3364 22.0077C24.1532 20.0124 24.5779 17.8759 24.5875 15.7175L22.5875 15.7086C22.579 17.6107 22.2048 19.493 21.4855 21.25L23.3364 22.0077ZM19.7718 27.4065C21.2992 25.8606 22.5104 24.026 23.3365 22.0076L21.4855 21.2501C20.7581 23.0274 19.6921 24.6416 18.3491 26.0009L19.7718 27.4065ZM19.0204 28.1207C19.2778 27.8909 19.5284 27.6528 19.7717 27.4066L18.3492 26.0008C18.1353 26.2173 17.915 26.4266 17.6887 26.6285L19.0204 28.1207ZM19.7717 27.3425C19.5284 27.0963 19.2778 26.8582 19.0204 26.6285L17.6887 28.1207C17.915 28.3226 18.1353 28.5319 18.3492 28.7484L19.7717 27.3425ZM23.3365 32.7415C22.5104 30.7232 21.2992 28.8886 19.7718 27.3426L18.3491 28.7483C19.6921 30.1075 20.7581 31.7217 21.4855 33.4991L23.3365 32.7415ZM24.5877 39.1066C24.5877 36.9226 24.1627 34.7598 23.3364 32.7415L21.4855 33.4992C22.2131 35.2765 22.5877 37.1819 22.5877 39.1066H24.5877ZM15.8591 40.1066H23.5877V38.1066H15.8591V40.1066ZM14.3453 36.4923C14.6844 37.3209 14.8591 38.2091 14.8591 39.1066H16.8591C16.8591 37.9497 16.6339 36.8041 16.1962 35.7348L14.3453 36.4923ZM12.8842 34.2791C13.5096 34.9118 14.0062 35.6638 14.3453 36.4923L16.1962 35.7348C15.7586 34.6654 15.1168 33.6928 14.3066 32.8731L12.8842 34.2791ZM10.7015 32.8029C11.517 33.1447 12.2588 33.646 12.884 34.2789L14.3068 32.8733C13.4968 32.0534 12.5344 31.4026 11.4747 30.9584L10.7015 32.8029ZM8.17753 32.2854C9.04345 32.2915 9.90051 32.4671 10.7016 32.8029L11.4747 30.9584C10.4337 30.5221 9.31886 30.2934 8.1917 30.2855L8.17753 32.2854ZM9.18462 39.1065V31.2854H7.18462V39.1065H9.18462ZM0.456055 40.1065H8.18462V38.1065H0.456055V40.1065ZM-0.543945 0V39.1065H1.45605V0H-0.543945ZM38.0989 11.732C38.0989 13.3508 36.8053 14.6426 35.2346 14.6426V16.6426C37.9323 16.6426 40.0989 14.4328 40.0989 11.732H38.0989ZM35.2346 8.82131C36.8053 8.82131 38.0989 10.1132 38.0989 11.732H40.0989C40.0989 9.03117 37.9323 6.82131 35.2346 6.82131V8.82131ZM32.3703 11.732C32.3703 10.1132 33.6639 8.82131 35.2346 8.82131V6.82131C32.5369 6.82131 30.3703 9.03117 30.3703 11.732H32.3703ZM35.2346 14.6426C33.6639 14.6426 32.3703 13.3508 32.3703 11.732H30.3703C30.3703 14.4328 32.5369 16.6426 35.2346 16.6426V14.6426ZM40.0989 23.4639V15.6426H38.0989V23.4639H40.0989ZM31.3703 24.4639H39.0989V22.4639H31.3703V24.4639ZM38.3876 14.9397L30.659 22.7611L32.0816 24.1668L39.8102 16.3455L38.3876 14.9397Z" fill="#2C37CD" mask="url(#path-1-inside-1_85_371)"/>
</svg>
